<svg width="24" height="24" viewBox="0 0 24 24" fill="none" xmlns="http://www.w3.org/2000/svg"><path d="M12 4C8.14 4 5 7.14 5 11C5 14.86 8.14 18 12 18C15.86 18 19 14.86 19 11C19 7.14 15.86 4 12 4Z" stroke="currentColor" stroke-width="1.8"/><path d="M5.5 11H18.5" stroke="currentColor" stroke-width="1.8" stroke-linecap="round"/><path d="M12 4C13.8 5.9 14.8 8.3 14.8 11C14.8 13.7 13.8 16.1 12 18" stroke="currentColor" stroke-width="1.8" stroke-linecap="round"/><path d="M12 4C10.2 5.9 9.2 8.3 9.2 11C9.2 13.7 10.2 16.1 12 18" stroke="currentColor" stroke-width="1.8" stroke-linecap="round"/><path d="M8 20H16" stroke="currentColor" stroke-width="1.8" stroke-linecap="round"/></svg>
